<?xml version="1.0" encoding="UTF-8"?>
<svg xmlns="http://www.w3.org/2000/svg" xmlns:xlink="http://www.w3.org/1999/xlink" viewBox="0 0 512 512" width="512px" height="512px">
<g id="surface229713921">
<rect x="0" y="0" width="512" height="512" style="fill:rgb(0%,0%,0%);fill-opacity:1;stroke:none;"/>
<path style=" stroke:none;fill-rule:nonzero;fill:rgb(100%,9.411765%,0%);fill-opacity:1;" d="M 383.5 80 C 299.371094 89.664062 156.328125 84.792969 98.28125 82.9375 L 98.28125 102.96875 C 136.679688 110.234375 145.417969 108.882812 146.21875 131.25 C 148.988281 192.417969 147.625 327.449219 146.21875 384.28125 C 145.929688 405.671875 133.992188 404.945312 98.28125 411.96875 L 98.28125 432 C 215.050781 428.273438 295.1875 428.625 387.8125 432 C 388.996094 417.199219 396.058594 358.0625 398.9375 336 L 379.21875 336 C 356.945312 388.6875 352.648438 406.65625 304.9375 406.65625 L 234.8125 406.65625 C 211.246094 406.65625 200.03125 397.007812 200.03125 376.59375 L 200.03125 267.40625 C 252.289062 267.40625 269.15625 268.96875 269.15625 268.96875 C 293.078125 269.335938 296.800781 288.496094 304 320 L 320 320 C 318.304688 242.671875 316.542969 271.632812 320 192 L 304 192 C 293.632812 236.59375 292.953125 241.871094 269.5625 242.625 C 269.5625 242.625 245.597656 244.976562 200.03125 244.59375 L 200.03125 115.9375 C 200.03125 111.027344 200.421875 108.28125 208.46875 108.28125 L 316.125 108.28125 C 343.453125 108.28125 350.054688 143.265625 358.3125 176 L 377.59375 176 C 378.296875 161.808594 381.117188 106.113281 383.5 80 Z M 383.5 80 "/>
</g>
</svg>
